<svg xmlns="http://www.w3.org/2000/svg" viewBox="0 0 376 872" width="376" height="872" role="img" aria-label="Hito 5">
            <defs>
            <clipPath id="bodyClip"><rect x="14" y="104" width="348" height="574"/></clipPath>
            <clipPath id="footerClip"><rect x="0" y="678" width="376" height="194"/></clipPath>
        </defs><path d="M35,0 L341,0 Q376,0 376,35 L376,92 L0,92 L0,35 Q0,0 35,0 Z" fill="#f16522"/><polygon points="0,92 14,104 362,104 376,92" fill="#d34704"/><rect x="14" y="104" width="348" height="574" fill="#dddddd"/><polygon points="376,678 362,666 14,666 0,678" fill="#7993ff"/><path d="M0,678 L376,678 L376,837 Q376,872 341,872 L35,872 Q0,872 0,837 Z" fill="#516bed"/><text x="188" y="46" font-family="'Suprema', Arial, sans-serif" font-size="60" fill="#FFF" font-weight="700" text-anchor="middle" dominant-baseline="central">Hito 5</text><g clip-path="url(#bodyClip)"><text x="33" y="132" font-family="'Suprema', Arial, sans-serif" font-size="20" fill="#000" text-anchor="start">Formula recomendaciones</text><text x="33" y="159" font-family="'Suprema', Arial, sans-serif" font-size="20" fill="#000" text-anchor="start">concretas y fundamentadas que</text><text x="33" y="186" font-family="'Suprema', Arial, sans-serif" font-size="20" fill="#000" text-anchor="start">buscan mejorar la eficiencia,</text><text x="33" y="213" font-family="'Suprema', Arial, sans-serif" font-size="20" fill="#000" text-anchor="start">eficacia y economía de las</text><text x="33" y="240" font-family="'Suprema', Arial, sans-serif" font-size="20" fill="#000" text-anchor="start">operaciones evaluadas,</text><text x="33" y="267" font-family="'Suprema', Arial, sans-serif" font-size="20" fill="#000" text-anchor="start">demostrando capacidad analítica,</text><text x="33" y="294" font-family="'Suprema', Arial, sans-serif" font-size="20" fill="#000" text-anchor="start">pensamiento crítico y compromiso</text><text x="33" y="321" font-family="'Suprema', Arial, sans-serif" font-size="20" fill="#000" text-anchor="start">con la optimización de los</text><text x="33" y="348" font-family="'Suprema', Arial, sans-serif" font-size="20" fill="#000" text-anchor="start">procesos organizacionales.</text></g><g clip-path="url(#footerClip)"><text x="188" y="703.75" font-family="'Suprema', Arial, sans-serif" font-size="19" fill="#FFF" font-weight="600" text-anchor="middle">¿Cómo influye una adecuada</text><text x="188" y="728.45" font-family="'Suprema', Arial, sans-serif" font-size="19" fill="#FFF" font-weight="600" text-anchor="middle">planificación de la auditoría y</text><text x="188" y="753.1500000000001" font-family="'Suprema', Arial, sans-serif" font-size="19" fill="#FFF" font-weight="600" text-anchor="middle">seguimiento a las</text><text x="188" y="777.8500000000001" font-family="'Suprema', Arial, sans-serif" font-size="19" fill="#FFF" font-weight="600" text-anchor="middle">recomendaciones en procura de</text><text x="188" y="802.5500000000002" font-family="'Suprema', Arial, sans-serif" font-size="19" fill="#FFF" font-weight="600" text-anchor="middle">una continua de una organización</text><text x="188" y="827.2500000000002" font-family="'Suprema', Arial, sans-serif" font-size="19" fill="#FFF" font-weight="600" text-anchor="middle">y en la rendición de cuentas de la</text><text x="188" y="851.9500000000003" font-family="'Suprema', Arial, sans-serif" font-size="19" fill="#FFF" font-weight="600" text-anchor="middle">gerencia?</text></g>
        </svg>