<svg xmlns="http://www.w3.org/2000/svg" viewBox="0 0 376 872" width="376" height="872" role="img" aria-label="Hito 3">
            <defs>
            <clipPath id="bodyClip"><rect x="14" y="104" width="348" height="574"/></clipPath>
            <clipPath id="footerClip"><rect x="0" y="678" width="376" height="194"/></clipPath>
        </defs><path d="M35,0 L341,0 Q376,0 376,35 L376,92 L0,92 L0,35 Q0,0 35,0 Z" fill="#f16522"/><polygon points="0,92 14,104 362,104 376,92" fill="#d34704"/><rect x="14" y="104" width="348" height="574" fill="#dddddd"/><polygon points="376,678 362,666 14,666 0,678" fill="#7993ff"/><path d="M0,678 L376,678 L376,837 Q376,872 341,872 L35,872 Q0,872 0,837 Z" fill="#516bed"/><text x="188" y="46" font-family="'Suprema', Arial, sans-serif" font-size="60" fill="#FFF" font-weight="700" text-anchor="middle" dominant-baseline="central">Hito 3</text><g clip-path="url(#bodyClip)"><text x="33" y="132" font-family="'Suprema', Arial, sans-serif" font-size="20" fill="#000" text-anchor="start">Aplica conocimientos y</text><text x="33" y="159" font-family="'Suprema', Arial, sans-serif" font-size="20" fill="#000" text-anchor="start">habilidades para obtener</text><text x="33" y="186" font-family="'Suprema', Arial, sans-serif" font-size="20" fill="#000" text-anchor="start">información mediante la aplicación</text><text x="33" y="213" font-family="'Suprema', Arial, sans-serif" font-size="20" fill="#000" text-anchor="start">de técnicas de auditoría,</text><text x="33" y="240" font-family="'Suprema', Arial, sans-serif" font-size="20" fill="#000" text-anchor="start">relevamiento de información,</text><text x="33" y="267" font-family="'Suprema', Arial, sans-serif" font-size="20" fill="#000" text-anchor="start">análisis de evidencias e</text><text x="33" y="294" font-family="'Suprema', Arial, sans-serif" font-size="20" fill="#000" text-anchor="start">indicadores de gestión,</text><text x="33" y="321" font-family="'Suprema', Arial, sans-serif" font-size="20" fill="#000" text-anchor="start">planificación del proceso,</text><text x="33" y="348" font-family="'Suprema', Arial, sans-serif" font-size="20" fill="#000" text-anchor="start">demostrando criterio profesional,</text><text x="33" y="375" font-family="'Suprema', Arial, sans-serif" font-size="20" fill="#000" text-anchor="start">enfoque analítico y compromiso</text><text x="33" y="402" font-family="'Suprema', Arial, sans-serif" font-size="20" fill="#000" text-anchor="start">con la mejora continua de los</text><text x="33" y="429" font-family="'Suprema', Arial, sans-serif" font-size="20" fill="#000" text-anchor="start">procesos organizacionales.</text></g><g clip-path="url(#footerClip)"><text x="188" y="707.5" font-family="'Suprema', Arial, sans-serif" font-size="18" fill="#FFF" font-weight="600" text-anchor="middle">¿Cómo contribuye el conocimiento</text><text x="188" y="730.9" font-family="'Suprema', Arial, sans-serif" font-size="18" fill="#FFF" font-weight="600" text-anchor="middle">previo del área a auditar y la</text><text x="188" y="754.3" font-family="'Suprema', Arial, sans-serif" font-size="18" fill="#FFF" font-weight="600" text-anchor="middle">preparación de los procedimientos</text><text x="188" y="777.6999999999999" font-family="'Suprema', Arial, sans-serif" font-size="18" fill="#FFF" font-weight="600" text-anchor="middle">de auditoría operacional a aplicar</text><text x="188" y="801.0999999999999" font-family="'Suprema', Arial, sans-serif" font-size="18" fill="#FFF" font-weight="600" text-anchor="middle">con el objetivo de determinar</text><text x="188" y="824.4999999999999" font-family="'Suprema', Arial, sans-serif" font-size="18" fill="#FFF" font-weight="600" text-anchor="middle">resultados óptimos respecto al</text><text x="188" y="847.8999999999999" font-family="'Suprema', Arial, sans-serif" font-size="18" fill="#FFF" font-weight="600" text-anchor="middle">objeto de auditoría?</text></g>
        </svg>