<svg xmlns="http://www.w3.org/2000/svg" viewBox="0 0 376 872" width="376" height="872" role="img" aria-label="Hito 2">
            <defs>
            <clipPath id="bodyClip"><rect x="14" y="104" width="348" height="574"/></clipPath>
            <clipPath id="footerClip"><rect x="0" y="678" width="376" height="194"/></clipPath>
        </defs><path d="M35,0 L341,0 Q376,0 376,35 L376,92 L0,92 L0,35 Q0,0 35,0 Z" fill="#f16522"/><polygon points="0,92 14,104 362,104 376,92" fill="#d34704"/><rect x="14" y="104" width="348" height="574" fill="#dddddd"/><polygon points="376,678 362,666 14,666 0,678" fill="#7993ff"/><path d="M0,678 L376,678 L376,837 Q376,872 341,872 L35,872 Q0,872 0,837 Z" fill="#516bed"/><text x="188" y="46" font-family="'Suprema', Arial, sans-serif" font-size="60" fill="#FFF" font-weight="700" text-anchor="middle" dominant-baseline="central">Hito 2</text><g clip-path="url(#bodyClip)"><text x="33" y="132" font-family="'Suprema', Arial, sans-serif" font-size="20" fill="#000" text-anchor="start">Analiza e interpreta de manera</text><text x="33" y="159" font-family="'Suprema', Arial, sans-serif" font-size="20" fill="#000" text-anchor="start">crítica los objetivos, el objeto y el</text><text x="33" y="186" font-family="'Suprema', Arial, sans-serif" font-size="20" fill="#000" text-anchor="start">alcance de la auditoría, así como</text><text x="33" y="213" font-family="'Suprema', Arial, sans-serif" font-size="20" fill="#000" text-anchor="start">las fases previas a su</text><text x="33" y="240" font-family="'Suprema', Arial, sans-serif" font-size="20" fill="#000" text-anchor="start">planificación, demostrando</text><text x="33" y="267" font-family="'Suprema', Arial, sans-serif" font-size="20" fill="#000" text-anchor="start">capacidad para contextualizar el</text><text x="33" y="294" font-family="'Suprema', Arial, sans-serif" font-size="20" fill="#000" text-anchor="start">proceso y aportar a una</text><text x="33" y="321" font-family="'Suprema', Arial, sans-serif" font-size="20" fill="#000" text-anchor="start">planificación precisa, estructurada</text><text x="33" y="348" font-family="'Suprema', Arial, sans-serif" font-size="20" fill="#000" text-anchor="start">y orientada a resultados.</text></g><g clip-path="url(#footerClip)"><text x="188" y="713" font-family="'Suprema', Arial, sans-serif" font-size="20" fill="#FFF" font-weight="600" text-anchor="middle">¿Por qué es fundamental</text><text x="188" y="739" font-family="'Suprema', Arial, sans-serif" font-size="20" fill="#FFF" font-weight="600" text-anchor="middle">comprender y analizar las fases</text><text x="188" y="765" font-family="'Suprema', Arial, sans-serif" font-size="20" fill="#FFF" font-weight="600" text-anchor="middle">previas, los objetivos, el objeto y</text><text x="188" y="791" font-family="'Suprema', Arial, sans-serif" font-size="20" fill="#FFF" font-weight="600" text-anchor="middle">el alcance de una auditoría para</text><text x="188" y="817" font-family="'Suprema', Arial, sans-serif" font-size="20" fill="#FFF" font-weight="600" text-anchor="middle">lograr una planificación efectiva</text><text x="188" y="843" font-family="'Suprema', Arial, sans-serif" font-size="20" fill="#FFF" font-weight="600" text-anchor="middle">y orientada a resultados?</text></g>
        </svg>